<?xml version="1.0" encoding="UTF-8"?>
<!DOCTYPE svg PUBLIC "-//W3C//DTD SVG 1.0//EN" "http://www.w3.org/TR/2001/REC-SVG-20010904/DTD/svg10.dtd">
<!-- Creator: CorelDRAW 2019 (64-Bit) -->
<svg xmlns="http://www.w3.org/2000/svg" xml:space="preserve" width="123.034mm" height="39.8052mm" version="1.0" style="shape-rendering:geometricPrecision; text-rendering:geometricPrecision; image-rendering:optimizeQuality; fill-rule:evenodd; clip-rule:evenodd"
viewBox="0 0 123.023 39.8017"
 xmlns:xlink="http://www.w3.org/1999/xlink"
 xmlns:xodm="http://www.corel.com/coreldraw/odm/2003">
 <defs>
  <style type="text/css">
   <![CDATA[
    .fil0 {fill:url(#id0)}
   ]]>
  </style>
  <linearGradient id="id0" gradientUnits="userSpaceOnUse" x1="43.4574" y1="50.5828" x2="79.5655" y2="-10.7809">
   <stop offset="0" style="stop-opacity:1; stop-color:#155CD6"/>
   <stop offset="0.109804" style="stop-opacity:1; stop-color:#4A80FC"/>
   <stop offset="1" style="stop-opacity:1; stop-color:#A86BFE"/>
  </linearGradient>
 </defs>
 <g id="Слой_x0020_1">
  <metadata id="CorelCorpID_0Corel-Layer"/>
  <path class="fil0" d="M10.855 14.4734c3.9968,0 7.2367,3.2399 7.2367,7.2366 0,3.9968 -3.2399,7.2368 -7.2367,7.2368 -3.9968,0 -7.2367,-3.24 -7.2367,-7.2368 0,-3.9967 3.2399,-7.2366 7.2367,-7.2366zm101.313 -0.8543l0 -2.7641 -3.6183 0 0 3.6184 0 3.6183 0 3.6183c0,1.2688 0.2177,2.4866 0.6176,3.6184 0.4766,1.3483 1.2119,2.5742 2.1464,3.6184 0.2687,0.3003 0.5541,0.5854 0.8542,0.8542 1.0442,0.9345 2.2701,1.6699 3.6184,2.1464 0.0165,0.0057 0.033,0.0115 0.0496,0.0173 1.1176,0.389 2.3184,0.6003 3.5687,0.6003l3.6184 0c0,-0.2045 -0.017,-0.4051 -0.0496,-0.6003 -0.286,-1.7127 -1.7749,-3.0179 -3.5688,-3.0179 -1.3181,0 -2.554,-0.3525 -3.6183,-0.9682 -1.0986,-0.6354 -2.0147,-1.5516 -2.6503,-2.6502 -0.6157,-1.0644 -0.9681,-2.3002 -0.9681,-3.6184l3.6184 0 3.6183 0 1.8091 -0.0001c0.9992,0 1.8091,-0.8099 1.8091,-1.809 0,-0.9991 -0.8099,-1.8091 -1.8091,-1.8091l-1.8091 0 -3.6183 0 -2.6503 0 -0.9681 0 0 -3.6183 0 -0.8543zm-12.6641 -13.1351l0 0.0001c-1.0816,0.6256 -1.8092,1.7949 -1.8092,3.1342l0 3.6184c0.6591,0 1.2771,-0.1762 1.8092,-0.4841 1.0815,-0.6257 1.8091,-1.795 1.8091,-3.1343l0 -3.6184c-0.6591,0 -1.277,0.1763 -1.8091,0.4841zm-1.8092 28.4627l0 3.6183c1.9984,0 3.6184,-1.62 3.6184,-3.6183l0 -3.6184 0 -3.6184 0 -3.6183 0 -3.6183 0 -3.6184c-1.9984,0 -3.6184,1.62 -3.6184,3.6184l0 3.6183 0 3.6183 0 3.6184 0 3.6184zm-10.8549 -14.4733c1.7937,0 3.2828,-1.3054 3.5686,-3.018 0.0328,-0.1953 0.0497,-0.3958 0.0497,-0.6003l-3.6183 0c-1.2503,0 -2.4511,0.2114 -3.5688,0.6003 -0.0165,0.0058 -0.0331,0.0115 -0.0496,0.0174 -1.3482,0.4766 -2.5743,1.2118 -3.6183,2.1463 -0.3003,0.2688 -0.5855,0.5541 -0.8542,0.8543 -0.9345,1.0441 -1.67,2.27 -2.1465,3.6183 -0.4,1.1317 -0.6176,2.3497 -0.6176,3.6183l0 3.6184 0 3.6184 0 3.6183 0 3.6183 0 3.6184c1.9984,0 3.6184,-1.62 3.6184,-3.6184l0 -3.6183 0 -2.7641 0 -0.8542 0 -3.6184 0.9681 0 2.6502 0 3.6184 0 1.8091 -0.0001c0.9992,0 1.8091,-0.8099 1.8091,-1.809 0,-0.9993 -0.8099,-1.8092 -1.8091,-1.8092l-1.8091 0 -3.6184 0 -3.6183 0c0,-1.318 0.3523,-2.554 0.9681,-3.6183 0.6354,-1.0986 1.5516,-2.0147 2.6502,-2.6502 1.0644,-0.6158 2.3002,-0.9681 3.6184,-0.9681zm0 10.855l0 -1.8091 0 1.8091zm0 -1.8091l0 0 0 0 0 -1.8092 0 1.8092zm-18.0916 -1.8092c0,-1.2686 -0.2178,-2.4866 -0.6177,-3.6183 -0.4766,-1.3483 -1.2119,-2.5742 -2.1464,-3.6183 -0.2687,-0.3003 -0.5541,-0.5855 -0.8542,-0.8543 -1.0441,-0.9345 -2.2701,-1.6698 -3.6184,-2.1463 -1.1317,-0.4 -2.3496,-0.6177 -3.6183,-0.6177 -1.2687,0 -2.4866,0.2178 -3.6184,0.6177 -1.3482,0.4766 -2.5742,1.2118 -3.6183,2.1463 -0.3003,0.2688 -0.5855,0.5541 -0.8543,0.8543 -0.9344,1.0441 -1.6698,2.27 -2.1463,3.6183 -0.4,1.1317 -0.6176,2.3497 -0.6176,3.6183 0,1.2688 0.2177,2.4866 0.6176,3.6184 0.4766,1.3483 1.2119,2.5742 2.1463,3.6184 0.2688,0.3003 0.5541,0.5854 0.8543,0.8542 1.0441,0.9345 2.2701,1.6699 3.6183,2.1464 1.1318,0.4 2.3497,0.6176 3.6184,0.6176 1.2687,0 2.4866,-0.2177 3.6183,-0.6176 1.3483,-0.4766 2.5743,-1.2119 3.6184,-2.1464 0.0281,-0.0252 0.0561,-0.0504 0.084,-0.0759 0.356,1.6243 1.8031,2.84 3.5344,2.84l0 -3.6183 0 -7.2368zm-3.6184 0c0,1.3182 -0.3524,2.554 -0.9681,3.6184 -0.6355,1.0986 -1.5517,2.0147 -2.6503,2.6502 -1.0643,0.6157 -2.3002,0.9682 -3.6183,0.9682 -1.3181,0 -2.554,-0.3525 -3.6184,-0.9682 -1.0986,-0.6354 -2.0147,-1.5516 -2.6502,-2.6502 -0.6157,-1.0644 -0.9681,-2.3002 -0.9681,-3.6184 0,-1.318 0.3524,-2.554 0.9681,-3.6183 0.6354,-1.0986 1.5516,-2.0147 2.6502,-2.6502 1.0644,-0.6158 2.3003,-0.9681 3.6184,-0.9681 1.3181,0 2.554,0.3523 3.6183,0.9681 1.0986,0.6354 2.0147,1.5516 2.6503,2.6502 0.6157,1.0643 0.9681,2.3003 0.9681,3.6183zm-25.3281 -7.2366c1.7937,0 3.2828,-1.3054 3.5687,-3.018 0.0327,-0.1953 0.0496,-0.3958 0.0496,-0.6003l-3.6183 0c-1.2503,0 -2.4511,0.2114 -3.5688,0.6003 -0.0165,0.0058 -0.0332,0.0115 -0.0496,0.0174 -1.3482,0.4766 -2.5742,1.2118 -3.6183,2.1463 -0.3003,0.2688 -0.5855,0.5541 -0.8543,0.8543 -0.9344,1.0441 -1.6699,2.27 -2.1464,3.6183 -0.4,1.1317 -0.6176,2.3497 -0.6176,3.6183l0 3.6184 0 3.6184 0 3.6183 3.6184 0 0 -2.7641 0 -0.8542 0 -3.6184 0 -3.6184c0,-1.318 0.3524,-2.554 0.9681,-3.6183 0.6354,-1.0986 1.5516,-2.0147 2.6502,-2.6502 1.0644,-0.6158 2.3002,-0.9681 3.6184,-0.9681zm-18.0916 10.855l0 -3.6184c0,-5.995 -4.8601,-10.855 -10.8551,-10.855 -5.9951,0 -10.855,4.86 -10.855,10.855 0,5.9951 4.8599,10.8551 10.855,10.8551 2.7532,0 5.267,-1.0251 7.1808,-2.7144 -0.122,0.9789 -0.4395,1.8971 -0.9122,2.7144 -0.6355,1.0986 -1.5517,2.0147 -2.6503,2.6502 -1.0643,0.6158 -2.3002,0.9681 -3.6183,0.9681 -1.7938,0 -3.2828,1.3054 -3.5687,3.018 1.1177,0.389 2.3185,0.6003 3.5687,0.6003 1.2503,0 2.4511,-0.2114 3.5687,-0.6003 0.0166,-0.0058 0.0332,-0.0115 0.0496,-0.0174 1.3483,-0.4766 2.5743,-1.2118 3.6184,-2.1463 0.3003,-0.2688 0.5855,-0.5541 0.8542,-0.8543 0.9345,-1.0441 1.6699,-2.27 2.1464,-3.6183 0.4,-1.1317 0.6177,-2.3497 0.6177,-3.6183l0 -3.6184z"/>
 </g>
</svg>
